<?xml version="1.0" encoding="utf-8"?>
<!-- Generator: Adobe Illustrator 24.0.3, SVG Export Plug-In . SVG Version: 6.00 Build 0)  -->
<svg version="1.1" id="Layer_1" xmlns="http://www.w3.org/2000/svg" xmlns:xlink="http://www.w3.org/1999/xlink" x="0px" y="0px"
	 viewBox="0 0 1920 1080" enable-background="new 0 0 1920 1080" xml:space="preserve">
<g>
	<path fill="#5448AF" d="M95,372.8h81.3v30.8c14.7-20.7,34.9-36.9,72.8-36.9c26.3,0,38.9,4,49.5,12.1l-28.8,76.3
		c-15.7-9.1-24.3-12.1-40.9-12.1c-28.3,0-42.9,15.7-52.5,33.9v213.7H95V372.8z"/>
	<path fill="#5448AF" d="M597.2,659.2c-31.8,26.8-77.3,39.4-121.8,39.4c-102.6,0-171.3-66.7-171.3-166.7
		c0-92.5,63.7-166.7,168.3-166.7c81.9,0,150.6,58.6,150.6,148c0,19.7-1.5,31.8-5.1,44H388.5c7.1,48,45.5,74.3,95.5,74.3
		c38.9,0,71.2-14.1,89.9-28.8L597.2,659.2z M386,502.1h156.1c0.5-38.9-26.3-69.2-72.8-69.2C420.4,432.9,394.6,460.2,386,502.1z"/>
	<path fill="#5448AF" d="M679.6,321.2c0-88.4,42.4-132.9,113.2-132.9c38.4,0,72.8,12.6,88.9,29.8l-27.8,62.1
		c-10.6-10.6-28.3-15.7-46.5-15.7c-27.8,0-46.5,19.2-46.5,63.2v45.5h86.4v75.8h-86.4v242h-81.3V321.2z"/>
	<path fill="#5448AF" d="M884.7,461.7c0-62.1,51-97,116.7-97c61.6,0,101.1,21.7,120.8,40.4l-30.3,58.1
		c-19.2-14.7-52.5-30.3-86.4-30.3c-24.8,0-39.4,13.6-39.4,27.8c0,53.1,171.8,24.3,171.8,136.4c0,63.2-51,102.1-128.8,102.1
		c-58.6,0-118.2-31.8-132.9-54.6l39.4-53.1c19.2,20.7,67.2,39.4,99,39.4c23.2,0,41.9-10.1,41.9-29.8
		C1056.5,549.6,884.7,577.9,884.7,461.7z"/>
	<path fill="#5448AF" d="M1467.8,659.2c-31.8,26.8-77.3,39.4-121.8,39.4c-102.6,0-171.3-66.7-171.3-166.7
		c0-92.5,63.7-166.7,168.3-166.7c81.9,0,150.6,58.6,150.6,148c0,19.7-1.5,31.8-5.1,44h-229.9c7.1,48,45.5,74.3,95.5,74.3
		c38.9,0,71.2-14.1,89.9-28.8L1467.8,659.2z M1256.6,502.1h156.1c0.5-38.9-26.3-69.2-72.8-69.2
		C1290.9,432.9,1265.2,460.2,1256.6,502.1z"/>
	<path fill="#5448AF" d="M1824,659.2c-31.8,26.8-77.3,39.4-121.8,39.4c-102.6,0-171.3-66.7-171.3-166.7
		c0-92.5,63.7-166.7,168.3-166.7c81.9,0,150.6,58.6,150.6,148c0,19.7-1.5,31.8-5.1,44h-229.9c7.1,48,45.5,74.3,95.5,74.3
		c38.9,0,71.2-14.1,89.9-28.8L1824,659.2z M1612.3,502.1h156.1c0.5-38.9-26.3-69.2-72.8-69.2
		C1647.2,432.9,1620.9,460.2,1612.3,502.1z"/>
</g>
</svg>
