<?xml version="1.0" encoding="utf-8"?>
<!-- Generator: Adobe Illustrator 24.0.3, SVG Export Plug-In . SVG Version: 6.00 Build 0)  -->
<svg version="1.1" id="Layer_1" xmlns="http://www.w3.org/2000/svg" xmlns:xlink="http://www.w3.org/1999/xlink" x="0px" y="0px"
	 viewBox="0 0 50 50" style="enable-background:new 0 0 50 50;" xml:space="preserve">
<style type="text/css">
	.st0{fill:#FFFFFF;}
</style>
<path class="st0" d="M23.2,6.1C10.6,4.6,0.3,16.7,5.3,29.6c1.6,4.2,4.9,7.5,9.1,9.1c5.9,2.3,11.5,1.4,15.8-1.4l10.2,10.2
	c1.2,1.2,3.1,1.2,4.2,0l0,0c1.2-1.2,1.2-3.1,0-4.2l-10-10c2.6-3.4,3.9-7.7,3.4-12.4C37,13.3,30.8,7.1,23.2,6.1z M21,10
	c7.2,0,13,5.8,13,13s-5.8,13-13,13S8,30.2,8,23S13.8,10,21,10z"/>
</svg>
